<?xml version="1.0" encoding="UTF-8" standalone="no"?>
<!-- Created with Inkscape (http://www.inkscape.org/) -->

<svg
   viewBox="0 0 98.772095 126.88041"
   version="1.1"
   id="svg1"
   xml:space="preserve"
   xmlns="http://www.w3.org/2000/svg"
   xmlns:svg="http://www.w3.org/2000/svg">
  <g
     id="layer1"
     transform="translate(-62.070887,-64.373307)"><path
       style="fill:var(--icon-fill);"
       d="m 65.190684,191.0765 c -1.22847,-0.3731 -2.248636,-1.27773 -2.692829,-2.38788 -0.3885,-0.97096 -0.426968,-6.46084 -0.426968,-60.93381 v -59.8667 l 0.595312,-1.174489 c 1.237467,-2.441391 -1.660566,-2.235303 32.560623,-2.315479 26.860538,-0.06293 30.207408,-0.02586 30.985128,0.343191 1.37608,0.652994 26.71555,25.820304 27.38103,27.195002 l 0.5529,1.142136 v 22.023689 22.02369 l 1.02265,1.50684 c 7.56019,11.13961 7.56651,26.52507 0.0155,37.65132 l -1.00719,1.48407 -0.0816,5.44267 c -0.0909,6.06574 -0.16447,6.32787 -2.09363,7.46419 l -0.89839,0.52916 -42.59791,0.045 c -23.428854,0.0248 -42.920413,-0.0529 -43.314576,-0.17263 z M 102.7194,180.73907 c -9.370415,-9.96081 -12.662507,-27.33985 -5.178955,-27.33985 2.799115,0 3.951335,1.52497 4.254275,5.63055 2.11501,28.66421 41.47304,32.71167 49.88179,5.12971 5.68757,-18.65605 -13.11565,-36.8631 -32.03514,-31.01947 -2.07552,0.64106 -2.08464,0.75225 -0.1559,1.90013 5.05215,3.00674 1.563,10.0565 -3.64856,7.37182 -10.02593,-5.16472 -13.4307,-7.9707 -12.9196,-10.64744 0.13727,-0.71885 5.55709,-10.17311 7.04693,-12.29255 2.97671,-4.23462 9.31133,0.12286 6.73372,4.63202 -0.84954,1.48616 -0.93392,1.45929 2.13685,0.68033 8.53916,-2.16614 18.0778,-0.86984 25.31274,3.44 0.86328,0.51425 1.62059,0.93499 1.68292,0.93499 0.0623,0 0.11333,-6.96028 0.11333,-15.4673 V 98.224699 l -11.17865,-0.07696 c -12.39248,-0.08532 -12.18772,-0.05707 -13.47289,-1.858907 l -0.61617,-0.863888 -0.0743,-11.310937 -0.0743,-11.310937 H 95.532531 70.537573 v 55.03333 55.03333 h 17.09311 17.093107 z m 11.82239,-17.20339 c -2.86367,-0.85403 -3.79311,-4.69679 -1.65351,-6.83639 1.15231,-1.15232 2.20751,-1.3431 7.4376,-1.34475 l 4.67688,-10e-4 0.0856,-6.94531 c 0.10611,-8.60654 0.62731,-9.8252 4.20206,-9.8252 3.83295,0 4.21794,1.14433 4.21794,12.53718 0,13.28305 0.6203,12.54353 -10.58333,12.61748 -4.15887,0.0274 -7.91852,-0.0629 -8.38326,-0.20153 z m 20.02493,-79.223238 c -2.98052,-2.983177 -5.50951,-5.423958 -5.61998,-5.423958 -0.11047,0 -0.20086,2.440781 -0.20086,5.423958 V 89.7364 h 5.61998 5.61997 z"
       id="path1" /></g></svg>
