<svg
   viewBox="0 0 298.475 229.41099"
   version="1.1"
   id="svg1"
   xml:space="preserve"
   xmlns="http://www.w3.org/2000/svg"
   xmlns:svg="http://www.w3.org/2000/svg"><g
     id="layer1"
     transform="translate(79.315675,-56.623118)"><path
       style="fill:var(--icon-fill);fill-opacity:1;stroke-width:8.36553"
       d="M 183.96729,163.36637 C 189.56467,102.47661 139.41034,110.328 131.75651,96.211879 103.36515,43.848838 28.284613,48.217735 8.9227467,97.764457 2.8403287,113.32933 -36.651827,105.98932 -38.123869,164.93255 -97.120691,186.02595 -110.37743,282.36279 66.483357,283.14495 266.2109,284.0285 222.26716,184.74102 183.96729,163.36637 Z"
       id="path1"
        /></g><g
     id="layer2"
     transform="translate(79.315675,-56.623118)"><path
       d="m 157.52349,140.43999 a 26.458333,26.458333 0 1 0 -39.79913,22.83685 c -0.94671,12.02201 -8.3013,15.29623 -31.005864,20.01739 -7.342188,1.52135 -14.853874,3.07991 -21.790918,5.75882 v -52.17253 a 26.458333,26.458333 0 1 0 -26.458334,0 v 86.49395 a 26.458333,26.458333 0 1 0 26.631966,0.0992 c 0.988054,-7.44141 6.614584,-10.05831 26.979232,-14.27097 11.339888,-2.34404 23.060098,-4.77077 32.981978,-11.14144 11.98893,-7.68118 18.40921,-19.33939 19.16575,-34.68108 a 26.458333,26.458333 0 0 0 13.29532,-22.94021 z M 51.690143,100.75248 a 13.229167,13.229167 0 1 1 -13.229167,13.22918 13.229167,13.229167 0 0 1 13.229167,-13.22918 z m 0,158.75001 A 13.229167,13.229167 0 1 1 64.919309,246.27333 13.229167,13.229167 0 0 1 51.690143,259.50249 Z M 131.06515,153.66916 a 13.229167,13.229167 0 1 1 13.22917,-13.22917 13.229167,13.229167 0 0 1 -13.22917,13.22917 z"
       id="path1-2"
       style="stroke-width:0.413411" /></g></svg>
