<svg
   version="1.1"
   viewBox="0 0 14.373 14.373"
   id="svg1"
   xmlns="http://www.w3.org/2000/svg"
   xmlns:svg="http://www.w3.org/2000/svg"><defs
   id="defs1" />
<g
   id="Icons"
   transform="translate(-4.982471,-4.3966616)">
		<g
   id="g1">
			<path
       style="fill:var(--icon-fill);"
   d="m 18.748,11.717 c 0.389,0.389 0.389,1.025 0,1.414 l -4.949,4.95 c -0.389,0.389 -1.025,0.389 -1.414,0 l -6.01,-6.01 C 5.986,11.682 5.668,10.914 5.668,10.364 L 5.667,6 c 0,-0.55 0.45,-1 1,-1 h 4.364 c 0.55,0 1.318,0.318 1.707,0.707 z M 8.104,7.456 C 7.525,8.032 7.526,8.97 8.103,9.549 c 0.578,0.577 1.516,0.577 2.095,0.001 0.576,-0.578 0.576,-1.517 0,-2.095 C 9.617,6.879 8.68,6.878 8.104,7.456 Z"
   id="path1" />
		</g>
	</g>
</svg>
